<?xml version="1.0" encoding="utf-8"?>
<!-- Generator: Adobe Illustrator 16.0.0, SVG Export Plug-In . SVG Version: 6.00 Build 0)  -->
<!DOCTYPE svg PUBLIC "-//W3C//DTD SVG 1.1//EN" "http://www.w3.org/Graphics/SVG/1.1/DTD/svg11.dtd">
<svg version="1.1" id="Layer_1" xmlns="http://www.w3.org/2000/svg" xmlns:xlink="http://www.w3.org/1999/xlink" x="0px" y="0px"
	 width="16px" height="16px" viewBox="0 0 16 16" enable-background="new 0 0 16 16" xml:space="preserve">
<path fill-rule="evenodd" clip-rule="evenodd" fill="#211C57" d="M14,10h2l-4,6l-3-4H0L0.001,0.001h2.626v0L12,0v6h2l0,0V10L14,10z
	 M9,1H3v3c0,0.089-0.034,0,0,0h6c0.034,0,0,0.089,0,0V1z M11,1h-1l0,0v4c0,0.034-0.531,0-1,0H3C2.531,5,2,5.003,2,5V1l0,0H1l0,0v10
	l0,0h7l-1-1h3V6h1V1z M6,2h2v1H6V2z"/>
</svg>
