<?xml version="1.0" encoding="utf-8"?>
<!-- Generator: Adobe Illustrator 16.0.0, SVG Export Plug-In . SVG Version: 6.00 Build 0)  -->
<!DOCTYPE svg PUBLIC "-//W3C//DTD SVG 1.1//EN" "http://www.w3.org/Graphics/SVG/1.1/DTD/svg11.dtd">
<svg version="1.1" id="Layer_1" xmlns="http://www.w3.org/2000/svg" xmlns:xlink="http://www.w3.org/1999/xlink" x="0px" y="0px"
	 width="16px" height="16px" viewBox="0 0 16 16" enable-background="new 0 0 16 16" xml:space="preserve">
<g>
	<g>
		<path fill-rule="evenodd" clip-rule="evenodd" fill="#211C57" d="M11.004,2c-0.343,0-0.677,0.035-1,0.101V1l-1-1h-9v16h12v-4.102
			c2.282-0.463,4-2.48,4-4.899C16.004,4.238,13.766,2,11.004,2z M9.207,5.217c0.44-0.404,1.113-0.735,1.758-0.735
			c1.158,0,2.13,0.793,2.403,1.865l-0.985,0.252c-0.162-0.636-0.739-1.106-1.427-1.106c-0.35,0-0.699,0.303-0.952,0.507v1
			L8.381,6.894L8.744,4.8L9.207,5.217z M11.004,15h-10V1h8v1.422c-1.765,0.772-3,2.529-3,4.578v5h5V15
			C11.177,15,11.004,15.172,11.004,15z M13.009,9.199l-0.463-0.417c-0.44,0.403-1.113,0.735-1.759,0.735
			c-1.157,0-2.129-0.793-2.402-1.865L9.369,7.4c0.163,0.636,0.74,1.106,1.428,1.106c0.35,0,0.756-0.207,1.009-0.411l-0.487-0.439
			l2.053-0.551L13.009,9.199z M1.004,15C1.955,14.145,1.004,14.953,1.004,15L1.004,15z M1.004,1C1.004,1.046,1.08,1,1.004,1L1.004,1
			z M2.004,8h3V7h-3V8z M2.004,10h3V9h-3V10z"/>
	</g>
</g>
</svg>
