<?xml version="1.0" encoding="utf-8"?>
<!-- Generator: Adobe Illustrator 16.0.0, SVG Export Plug-In . SVG Version: 6.00 Build 0)  -->
<!DOCTYPE svg PUBLIC "-//W3C//DTD SVG 1.1//EN" "http://www.w3.org/Graphics/SVG/1.1/DTD/svg11.dtd">
<svg version="1.1" id="Layer_1" xmlns="http://www.w3.org/2000/svg" xmlns:xlink="http://www.w3.org/1999/xlink" x="0px" y="0px"
	 width="16px" height="16px" viewBox="0 0 16 16" enable-background="new 0 0 16 16" xml:space="preserve">
<path fill-rule="evenodd" clip-rule="evenodd" fill="#211C57" d="M13.419,13.947c0,0-4.648,0-4.62,0c0.026,0,0.003-3.539,0-3.539
	c-0.006,0,1.699,0,1.599,0c-0.183,0-2.391-2.663-2.398-2.655c-1.499,1.659-0.924,1.023-2.398,2.655c-0.023,0.025,1.603,0,1.599,0
	c-0.002,0,0,3.539,0,3.539c2.016,0-4.685,0-4.685,0c-2.198-0.574-2.393-2.504-2.393-2.504c-0.67-2.705,1.772-3.851,1.772-3.851
	C1.748,5.112,3.313,4.318,3.313,4.318C5.57,3.135,6.86,4.896,6.86,4.896c1.519-3.695,4.964-2.119,4.964-2.119
	c2.541,1.558,1.949,4.43,1.949,4.43c2.167,0.47,2.217,2.889,2.217,2.889C16.102,13.688,13.419,13.947,13.419,13.947z"/>
</svg>
