<?xml version="1.0" encoding="utf-8"?>
<!-- Generator: Adobe Illustrator 16.0.0, SVG Export Plug-In . SVG Version: 6.00 Build 0)  -->
<!DOCTYPE svg PUBLIC "-//W3C//DTD SVG 1.1//EN" "http://www.w3.org/Graphics/SVG/1.1/DTD/svg11.dtd">
<svg version="1.1" id="Layer_1" xmlns="http://www.w3.org/2000/svg" xmlns:xlink="http://www.w3.org/1999/xlink" x="0px" y="0px"
	 width="16px" height="16px" viewBox="0 0 16 16" enable-background="new 0 0 16 16" xml:space="preserve">
<path fill-rule="evenodd" clip-rule="evenodd" fill="none" d="M-351.396-357.597c0,0-0.586-2.635,2.095-2.903
	c0,0,2.537-0.103,2.095,2.903c0,0,0.533-0.091,0,0.764c0,0-0.203,0.254-0.322,0.153c0,0-0.026,1.207-0.645,1.681v0.306h0.483
	l0.161,0.305c0,0,1.23,1.02,2.417,0.917c0,0,1.485,0.112,1.451,2.292l0.161,1.681h-5.157c0,0,1.817-1.953,0.967-4.736
	c0,0,0.091-0.363-0.322-0.305c0,0-0.446,0.449-0.967,0.611v0.153c0,0,0.484,0.286,0.645,0.917c0,0-0.466-0.527-0.645-0.305
	c0,0,0.691,2.337,0.161,3.667h-0.806c0,0-0.374-1.342,0.161-3.667c0,0-0.028-0.246-0.483,0.305c0,0-0.049-0.565,0.645-0.917v-0.153
	c0,0-0.856-0.291-0.967-0.611c0,0-0.247-0.145-0.322,0.305l-0.161,0.153c0,0-0.247,2.237,0.967,4.583h-4.673
	c0.044-1.235-0.232-2.504,0.322-3.208c0,0,0.499-0.793,1.289-0.611c0,0,0.626-0.062,0.967-0.306l1.128-0.764
	c-0.098-0.074-0.001-0.317,0.481-0.304c0.002-0.001,0.002-0.307,0.002-0.307s-0.653-0.214-0.806-1.528c0,0-0.346,0.222-0.483-0.611
	C-351.59-357.335-351.733-357.698-351.396-357.597z"/>
<path fill="#211C57" d="M15.9,7.215c-0.024-0.222-0.285-0.39-0.509-0.39c-0.724,0-1.366-0.426-1.636-1.083
	c-0.276-0.674-0.098-1.46,0.442-1.955c0.169-0.155,0.189-0.416,0.048-0.597c-0.371-0.471-0.793-0.896-1.253-1.266
	c-0.18-0.144-0.444-0.124-0.601,0.049c-0.472,0.522-1.317,0.716-1.971,0.443C9.741,2.131,9.313,1.44,9.354,0.7
	c0.014-0.232-0.156-0.435-0.388-0.462c-0.59-0.069-1.186-0.07-1.778-0.005C6.959,0.259,6.789,0.457,6.796,0.687
	C6.822,1.42,6.388,2.097,5.714,2.373C5.068,2.638,4.228,2.445,3.757,1.927c-0.155-0.17-0.416-0.191-0.596-0.05
	C2.688,2.25,2.256,2.675,1.882,3.142C1.736,3.323,1.758,3.587,1.93,3.743c0.55,0.499,0.727,1.292,0.442,1.973
	c-0.273,0.65-0.947,1.069-1.72,1.069c-0.25-0.009-0.429,0.16-0.457,0.388c-0.07,0.594-0.07,1.199-0.003,1.799
	C0.217,9.194,0.483,9.36,0.71,9.36c0.688-0.017,1.348,0.409,1.626,1.083c0.276,0.675,0.098,1.461-0.442,1.955
	c-0.169,0.156-0.191,0.416-0.048,0.596c0.367,0.468,0.789,0.895,1.25,1.267c0.181,0.146,0.444,0.124,0.602-0.049
	c0.473-0.522,1.319-0.717,1.97-0.442c0.683,0.286,1.112,0.975,1.07,1.716c-0.014,0.232,0.156,0.436,0.388,0.462
	C7.428,15.982,7.731,16,8.037,16c0.289,0,0.578-0.016,0.868-0.047c0.229-0.025,0.399-0.224,0.392-0.454
	c-0.027-0.732,0.407-1.41,1.081-1.687c0.649-0.266,1.486-0.071,1.956,0.446c0.157,0.17,0.416,0.19,0.598,0.05
	c0.474-0.371,0.902-0.796,1.278-1.265c0.147-0.181,0.126-0.444-0.046-0.601c-0.552-0.499-0.729-1.292-0.444-1.974
	c0.27-0.641,0.919-1.071,1.618-1.071L15.435,9.4c0.226,0.019,0.435-0.155,0.462-0.388C15.967,8.419,15.968,7.814,15.9,7.215z
	 M8.046,12.652c-2.516,0-4.557-2.042-4.557-4.559c0-2.518,2.041-4.559,4.557-4.559c2.518,0,4.558,2.041,4.558,4.559
	c0,0.855-0.237,1.653-0.646,2.337L9.963,8.434c0.144-0.341,0.221-0.709,0.221-1.091c0-0.746-0.29-1.448-0.818-1.976
	C8.838,4.839,8.136,4.549,7.391,4.549c-0.25,0-0.498,0.033-0.737,0.098C6.549,4.676,6.462,4.762,6.435,4.868
	C6.406,4.975,6.438,5.085,6.523,5.169c0,0,0.984,0.994,1.314,1.323c0.034,0.035,0.034,0.117,0.029,0.147L7.864,6.66
	C7.83,7.023,7.767,7.458,7.713,7.625C7.706,7.632,7.7,7.639,7.693,7.646C7.685,7.653,7.678,7.66,7.67,7.668
	C7.501,7.722,7.06,7.788,6.691,7.82V7.818L6.675,7.823c-0.003,0-0.008,0-0.016,0c-0.04,0-0.099-0.012-0.152-0.064
	c-0.343-0.343-1.29-1.283-1.29-1.283c-0.085-0.085-0.171-0.104-0.23-0.104c-0.135,0-0.256,0.098-0.294,0.239
	c-0.26,0.964,0.016,2.002,0.721,2.708c0.527,0.528,1.229,0.818,1.976,0.818c0.381,0,0.75-0.076,1.09-0.221l2.016,2.018
	C9.79,12.388,8.949,12.652,8.046,12.652z"/>
</svg>
