<?xml version="1.0" encoding="utf-8"?>
<!-- Generator: Adobe Illustrator 19.1.0, SVG Export Plug-In . SVG Version: 6.00 Build 0)  -->
<svg version="1.1" id="Layer_1" xmlns="http://www.w3.org/2000/svg" xmlns:xlink="http://www.w3.org/1999/xlink" x="0px" y="0px"
	 width="64px" height="64px" viewBox="0 0 64 64" style="enable-background:new 0 0 64 64;" xml:space="preserve">
<style type="text/css">
	.st0{display:none;}
	.st1{display:inline;}
	.st2{fill:#18165A;}
	.st3{fill-rule:evenodd;clip-rule:evenodd;fill:#18165A;}
</style>
<g id="Shape_33_copy_43" class="st0">
	<g class="st1">
		<path class="st2" d="M22.2,32.8c6.3-2.2,15.5-5.3,19.5-6.7H32v-2h16.6l-1.7,0.7l1.8-0.3l-1.5-7.2H29.8l-17.3,7.8v2.9H8.6v2h3.9
			l-1,2.9l-6.4,1.7v1.4C6.7,36.4,14,35.7,22.2,32.8z M32,19.3h13.7v2.9H32V19.3z M26.1,21.3l3.9-2v2.9l-3.9,2V21.3z M26.1,26.1
			l3.9-2v2.9l-3.9,2V26.1z M21.2,24.2l2.9-2v2.9l-2.9,1V24.2z M24.2,27.1V30l-2.9,1l-0.2-2.1L24.2,27.1z M16.4,26.1l2.9-1v2l-2.9,1
			V26.1z M16.4,30l2.9-1v2l-2.9,1V30z M63.2,25.5c-5.7-0.9-13.3-0.9-32.2,6.6C12.2,39.6,0.8,39,0.8,39C2.1,47.7,7,50.5,7,50.5h45.8
			c0-7,5.6-12.8,7.8-15.1C62.8,33.1,63.3,24.9,63.2,25.5z M28.1,14.4h-8.8v5.9l8.8-3.9V14.4z"/>
	</g>
</g>
<g id="Forma_1_copy_8">
	<g>
		<path class="st3" d="M60,52.8L39.6,33.6c-0.2-0.2-0.4-0.3-0.6-0.5l3.6-3.6c0.2-0.2,0.4-0.4,0.5-0.5c4.8,1.7,10.5,0.7,14.3-2.9
			c2.8-2.6,4.2-6.3,3.9-10c0-0.4-0.3-0.8-0.8-0.9c-0.4-0.1-0.9,0-1.2,0.3l-6.6,6.1L46.1,20l-1.9-6.4l6.6-6.1
			c0.3-0.3,0.4-0.7,0.3-1.1c-0.2-0.4-0.5-0.7-1-0.7c-4-0.3-7.9,1-10.7,3.7c-3.9,3.6-4.9,8.9-3.1,13.4c-0.2,0.2-0.4,0.3-0.6,0.5
			L30.4,28l-9.8-9.2c-0.1-0.1-0.3-0.2-0.4-0.3c0.1-0.2,0.2-0.4,0.3-0.6c2.1,0.4,5.8-3.4,9.1-6.4l-9.4-8.8c-4.2,3.9-7.2,6.5-6.8,8.5
			c-1,0.4-1.8,1-2.4,1.5L9.7,14c-0.9,0.8-1.4,1.8-1.6,2.8C8,17,7.9,17.1,7.7,17.3l-0.5,0.6c0,0-0.1,0.1-0.1,0.1l-0.4,0.6
			c-0.3,0.3-0.5,0.7-0.8,1.1c-0.1,0.1-0.2,0.3-0.3,0.4c0,0,0,0,0,0.1l-0.2,0.3c-0.2,0.4-0.5,0.9-0.7,1.3l0,0.1
			c-0.3,0.6-0.5,1.1-0.7,1.7L4,23.9c-0.1,0.2-0.1,0.4-0.2,0.7l-0.2,0.8c-0.1,0.5-0.2,1-0.2,1.5l0,0.3c-0.1,0.5,0,0.9,0,1.3
			c0,0.1,0,0.3,0,0.4c0,0.1,0,0.1,0,0.2c0,0.2,0,0.4,0,0.6l0.1,0.7c0,0.1,0,0.3,0.1,0.4c0,0.3,0.1,0.6,0.2,0.8l0.5,1.6
			C4.3,33.7,4.8,34,5.4,34c0.3,0,0.5-0.1,0.7-0.3c0.2-0.2,0.3-0.4,0.3-0.6l0.2-1.6c0-0.1,0.1-0.3,0.1-0.5c0-0.1,0.1-0.3,0.1-0.4
			L7.1,30c0-0.1,0.1-0.2,0.1-0.2c0-0.1,0.1-0.2,0.1-0.2c0.1-0.1,0.1-0.3,0.2-0.4c0.1-0.3,0.2-0.5,0.4-0.7c0.1-0.1,0.1-0.2,0.2-0.3
			c0.2-0.3,0.3-0.5,0.5-0.7c0,0,0,0,0,0l0.4-0.5c0.1-0.1,0.2-0.2,0.3-0.3c0.1-0.1,0.1-0.1,0.2-0.2c0.2-0.3,0.5-0.5,0.8-0.8l0.1-0.1
			c0.2-0.2,0.4-0.3,0.7-0.5c0.1-0.1,0.2-0.1,0.3-0.2c0.1-0.1,0.2-0.2,0.4-0.2c0.2-0.1,0.4-0.3,0.6-0.4l0.5-0.3l0.5-0.2
			c0.2-0.1,0.3-0.2,0.5-0.2c0.1,0,0.2-0.1,0.3-0.1c0.1,0,0.2-0.1,0.3-0.1c0.1,0,0.2-0.1,0.3-0.1l0.1,0c0.1,0.2,0.3,0.4,0.5,0.6
			l9.7,9.1L4.4,51.3c0,0,0,0,0,0c-2.6,2.4-3,5.9-0.4,8.4c2.6,2.4,6.1,1.8,8.7-0.6c0,0,0,0,0,0l18.2-18c0.1,0.1,0.2,0.2,0.3,0.3
			l20.5,19.2c2.3,2.1,6,2.1,8.3,0C62.3,58.4,62.3,55,60,52.8z M10,57.1C9,58,7.5,58,6.6,57.1c-0.9-0.9-0.9-2.3,0-3.2
			C7.5,53,9,53,10,53.9C10.9,54.8,10.9,56.2,10,57.1z"/>
	</g>
</g>
</svg>
