<?xml version="1.0" encoding="utf-8"?>
<!-- Generator: Adobe Illustrator 16.0.0, SVG Export Plug-In . SVG Version: 6.00 Build 0)  -->
<!DOCTYPE svg PUBLIC "-//W3C//DTD SVG 1.1//EN" "http://www.w3.org/Graphics/SVG/1.1/DTD/svg11.dtd">
<svg version="1.1" id="Layer_1" xmlns="http://www.w3.org/2000/svg" xmlns:xlink="http://www.w3.org/1999/xlink" x="0px" y="0px"
	 width="32px" height="32px" viewBox="0 0 32 32" enable-background="new 0 0 32 32" xml:space="preserve">

<g>
	<g>
		<path class="opration" fill-rule="evenodd" clip-rule="evenodd" fill="#3190CF" d="M12.997,29V13L1.33,9.333C4.521,21.635,12.997,29,12.997,29z
			 M13.997,29c0,0,8.072-7.436,11.264-19.737L13.997,13V29z M30.997,3h-2V1c0-0.521-1.396-1-1-1c-0.419,0-1,0.582-1,1v2H3.392
			C3.058,2.51,2.495,2.188,1.856,2.188c-1.027,0-1.859,0.833-1.859,1.859S0.83,5.906,1.856,5.906C2.533,5.906,3.12,5.541,3.445,5
			h23.552v23.398c-0.709,0.259-1.219,0.938-1.219,1.742c0,1.027,1.2,1.859,2.219,1.859c1.018,0,2-0.973,2-2
			c0-0.581-0.438-1.048-1-1.35V5h2c0.418,0,1.076,0.03,1-1C31.966,3.583,31.415,3,30.997,3z"/>
	</g>
</g>
</svg>
