<?xml version="1.0" encoding="utf-8"?>
<!-- Generator: Adobe Illustrator 16.0.0, SVG Export Plug-In . SVG Version: 6.00 Build 0)  -->
<!DOCTYPE svg PUBLIC "-//W3C//DTD SVG 1.1//EN" "http://www.w3.org/Graphics/SVG/1.1/DTD/svg11.dtd">
<svg version="1.1" id="Layer_1" xmlns="http://www.w3.org/2000/svg" xmlns:xlink="http://www.w3.org/1999/xlink" x="0px" y="0px"
	 width="32px" height="32px" viewBox="0 0 32 32" enable-background="new 0 0 32 32" xml:space="preserve">
<path fill-rule="evenodd" clip-rule="evenodd" fill="#ffffff" d="M31.918,8.55c-1.294,0.054-0.508,1.122-0.508,1.122
	c1.268,1.24-0.132,2.425-0.132,2.425l-4.462,4.763c-1.087,1.759-1.461,0.294-1.461,0.294l-7.273,7.78
	c-0.583,0.797-1.71,0.612-1.71,0.612l-1.473,0.859l0.839-1.521l0.114-1.615L28.45,8.154c0.66-0.634,0.728,0.015,0.728,0.015
	c1.289,0.188,1.641-1.18,1.641-1.18C32.439,6.78,31.918,8.55,31.918,8.55z M30.244,10.866l-4.308,4.657c0,0-0.861,0.949,0,0.776
	l4.824-5.003C30.761,11.297,30.847,10.262,30.244,10.866z M2.999,24.998h5c0.346,0,0,0.653,0,1v1c0,0.347-0.654,0-1,0h-4
	c-0.346,0,0,0.347,0,0v-1C2.999,25.651,2.653,24.998,2.999,24.998z M11.999,21.998h-9c-0.346,0,0,0.347,0,0v-1c0-0.347-0.346-1,0-1
	h9c0.346,0,0,0.653,0,1V21.998C11.812,21.72,12.345,21.998,11.999,21.998z M3.499,11.998c-0.346,0-0.5-0.653-0.5-1l0,0
	c0-0.347-0.209-1.063,0.136-1.063h4.387c0.346,0,0.626,0.28,0.626,0.627v0.628c0,0.346-0.304,0.808-0.65,0.808H3.499z
	 M16.999,15.998l-0.076,0.943c0,0.347-0.578,0.057-0.924,0.057h-13c-0.346,0,0,0.347,0,0l0,0c0-0.347-0.346-2,0-2h14
	C17.345,14.998,16.999,15.651,16.999,15.998z M21.999,10.998h-6v-8l-1-1h-13c-0.346,0,0-0.347,0,0v28c0,0.347-0.346,0,0,0h20
	c0.346,0,0-0.653,0-1v-6l2-0.5v8.5c0,0.347-0.463,1.001-0.81,1.001H0.628c-0.346,0-0.626-0.28-0.626-0.627V0.629
	c0-0.347,0.281-0.628,0.626-0.628H16.14l7.859,9.497v3l-2,0.5V10.998z"/>
</svg>
