<?xml version="1.0" encoding="utf-8"?>
<!-- Generator: Adobe Illustrator 16.0.0, SVG Export Plug-In . SVG Version: 6.00 Build 0)  -->
<!DOCTYPE svg PUBLIC "-//W3C//DTD SVG 1.1//EN" "http://www.w3.org/Graphics/SVG/1.1/DTD/svg11.dtd">
<svg version="1.1" id="Layer_1" xmlns="http://www.w3.org/2000/svg" xmlns:xlink="http://www.w3.org/1999/xlink" x="0px" y="0px"
	 width="32px" height="32px" viewBox="0 0 32 32" enable-background="new 0 0 32 32" xml:space="preserve">
<g>
	<g>
		<path fill-rule="evenodd" clip-rule="evenodd" fill="#3190CF" d="M31.371,15.373H0.628c-0.255,0-0.462,0.208-0.462,0.461v15.704
			C0.166,31.793,0.373,32,0.628,32h30.743c0.257,0,0.463-0.207,0.463-0.462V15.834C31.834,15.581,31.628,15.373,31.371,15.373z
			 M4.132,18.013l-0.728,0.004v12.137H2.81V17.42h1.322V18.013z M7.637,18.013l-0.728,0.004v12.137H6.314V17.42h1.322V18.013z
			 M11.273,18.013l-0.728,0.004v12.137H9.951V17.42h1.322V18.013z M14.844,18.013l-0.728,0.004v12.137h-0.595V17.42h1.323V18.013z
			 M18.479,18.013l-0.728,0.004v12.137h-0.595V17.42h1.322V18.013z M22.114,18.013l-0.727,0.004v12.137h-0.594V17.42h1.32V18.013z
			 M25.686,18.013l-0.728,0.004v12.137h-0.594V17.42h1.321V18.013z M29.256,18.013l-0.729,0.004v12.137h-0.594V17.42h1.322V18.013z
			 M16.496,0h-1.123v3.102h1.123V0z M28.065,14.713h2.183l-10.646-6.4L18.941,9.37L28.065,14.713z M15.968,9.831
			c1.643,0,2.974-1.33,2.974-2.97c0-1.639-1.331-2.969-2.974-2.969c-1.644,0-2.976,1.33-2.976,2.969
			C12.992,8.501,14.324,9.831,15.968,9.831z M15.968,5.938c0.51,0,0.926,0.414,0.926,0.924s-0.416,0.924-0.926,0.924
			c-0.512,0-0.926-0.414-0.926-0.924S15.456,5.938,15.968,5.938z M13.125,9.37l-0.661-1.056l-10.644,6.4H4L13.125,9.37z"/>
	</g>
</g>
</svg>
