<?xml version="1.0" encoding="utf-8"?>
<!-- Generator: Adobe Illustrator 16.0.0, SVG Export Plug-In . SVG Version: 6.00 Build 0)  -->
<!DOCTYPE svg PUBLIC "-//W3C//DTD SVG 1.1//EN" "http://www.w3.org/Graphics/SVG/1.1/DTD/svg11.dtd">
<svg version="1.1" id="Layer_1" xmlns="http://www.w3.org/2000/svg" xmlns:xlink="http://www.w3.org/1999/xlink" x="0px" y="0px"
	 width="32px" height="32px" viewBox="0 0 32 32" enable-background="new 0 0 32 32" xml:space="preserve">
<path fill-rule="evenodd" clip-rule="evenodd" fill="#3190CF" d="M18.823,20.468c0,0-4.991,4.946-11.294,5.131L1.345,12.365
	c0,0,5.11-0.283,11.563-5.672c0,0,6.706-6.104,13.176-5.672L32,14.255C32,14.255,27.354,13.448,18.823,20.468z M8.605,21.277
	c5.325-1.213,8.605-4.052,8.605-4.052l-0.538-1.08c-4.395,3.38-8.605,4.051-8.605,4.051L8.605,21.277z M17.748,8.583
	c-7.497,6.078-12.37,6.752-12.37,6.752l0.538,1.08c5.854-1.63,12.639-6.752,12.639-6.752L17.748,8.583z M18.823,11.014
	c-7.496,6.078-12.37,6.752-12.37,6.752l0.538,1.08c5.854-1.631,12.638-6.752,12.638-6.752L18.823,11.014z M27.285,9.409
	c-0.117-0.287-0.282-0.513-0.492-0.678c-0.211-0.165-0.482-0.283-0.818-0.354c-0.334-0.071-0.859-0.101-1.576-0.09l-0.596-1.444
	c0.537-0.169,1.096-0.252,1.674-0.249l-0.025-1.331c-0.695-0.025-1.411,0.097-2.148,0.365l-0.301-0.729l-0.648,0.27l0.309,0.749
	c-0.615,0.332-1.039,0.725-1.271,1.179c-0.233,0.454-0.252,0.918-0.058,1.391c0.182,0.44,0.464,0.756,0.848,0.946
	s0.94,0.283,1.671,0.277l0.371-0.004l0.625,1.518c-0.313,0.106-0.684,0.186-1.115,0.239s-0.813,0.066-1.146,0.041l0.532,1.292
	c0.689,0.023,1.424-0.118,2.201-0.422l0.406,0.984l0.648-0.27l-0.412-1.004c0.628-0.333,1.059-0.733,1.293-1.2
	C27.489,10.42,27.5,9.928,27.285,9.409z M25.482,10.921L24.98,9.702c0.256,0.012,0.458,0.043,0.604,0.093
	c0.146,0.05,0.247,0.144,0.304,0.28C26.018,10.385,25.881,10.667,25.482,10.921z M22.76,7.896c-0.114-0.277,0.02-0.532,0.402-0.763
	l0.474,1.15c-0.255-0.009-0.45-0.04-0.585-0.092C22.916,8.137,22.818,8.039,22.76,7.896z M6.723,26.679
	c0,0,5.079,1.232,14.252-6.481c0,0,4.693-4.383,8.874-4.861L32,19.657c0,0-1.797-0.658-9.949,5.131c0,0-7.491,6.017-16.404,6.213
	L0,18.847l2.958-1.08L6.723,26.679z"/>
</svg>
