<?xml version="1.0" encoding="utf-8"?>
<!-- Generator: Adobe Illustrator 16.0.0, SVG Export Plug-In . SVG Version: 6.00 Build 0)  -->
<!DOCTYPE svg PUBLIC "-//W3C//DTD SVG 1.1//EN" "http://www.w3.org/Graphics/SVG/1.1/DTD/svg11.dtd">
<svg version="1.1" id="Layer_1" xmlns="http://www.w3.org/2000/svg" xmlns:xlink="http://www.w3.org/1999/xlink" x="0px" y="0px"
	 width="32px" height="32px" viewBox="0 0 32 32" enable-background="new 0 0 32 32" xml:space="preserve">
<path fill-rule="evenodd" clip-rule="evenodd" fill="#3190CF" d="M21,3H4v18h4v3H4H1L1.001-0.001L24,0v3v2h-3V3z M25,26H14v-2h11V26
	z M21,23h-7v-2h7V23z M23,20h-9v-2h9V20z M25,17H14v-2h11V17z M21,14h-7v-2h7V14z M28,9H12v20h16V9z M9,32V6h22l-0.002,26.001L9,32z
	"/>
</svg>
