<?xml version="1.0" encoding="utf-8"?>
<!-- Generator: Adobe Illustrator 16.0.0, SVG Export Plug-In . SVG Version: 6.00 Build 0)  -->
<!DOCTYPE svg PUBLIC "-//W3C//DTD SVG 1.1//EN" "http://www.w3.org/Graphics/SVG/1.1/DTD/svg11.dtd">
<svg version="1.1" id="Layer_1" xmlns="http://www.w3.org/2000/svg" xmlns:xlink="http://www.w3.org/1999/xlink" x="0px" y="0px"
	 width="32px" height="32px" viewBox="0 0 32 32" enable-background="new 0 0 32 32" xml:space="preserve">
<g>
	<g>
		<path fill-rule="evenodd" clip-rule="evenodd" fill="#3190CF" d="M32,11.784l-2.586-4.539L10.989,19.891V9.839l2.586,1.298
			l0.971-1.622L0,0.76v30.48h13.898v-4.864l-0.97-1.621L32,11.784z M29.173,8.869l1.538,2.348l-2.346,1.54l-1.54-2.349L29.173,8.869
			z M25.94,11.14l1.538,2.348l-2.345,1.539l-1.54-2.348L25.94,11.14z M22.708,13.409l1.539,2.348L21.9,17.296l-1.539-2.348
			L22.708,13.409z M19.152,15.679l1.54,2.348l-2.347,1.54l-1.54-2.349L19.152,15.679z M16.032,17.942l1.417,2.47l-2.455,1.426
			l-1.418-2.47L16.032,17.942z M8.08,21.513H2.263v-9.404H8.08V21.513z M10.283,21.631l2.52-1.459l1.454,2.527l-2.519,1.459
			L10.283,21.631z M19.398,30.791c0.049,0.39,0.47,0.449,0.47,0.449h1.331c0.355-0.082,0.47-0.449,0.47-0.449v-0.599h7.982v0.675
			c0.132,0.314,0.47,0.373,0.47,0.373h1.409c0.392-0.063,0.47-0.449,0.47-0.449v-2.245H19.398V30.791z M30.592,24.728l-0.548-3.743
			c-0.404-1.331-1.645-1.423-1.645-1.423c-1.986-0.56-4.931-0.225-4.931-0.225c-1.969,0.227-2.191,1.423-2.191,1.423l-0.704,3.893
			c-1.328,0.231-1.175,1.422-1.175,1.422v1.873H32v-1.723C32,24.622,30.592,24.728,30.592,24.728z M22.373,21.358
			c0,0,0.054-0.73,1.252-0.898c0,0,2.612-0.338,3.992,0c1.379,0.338,1.253,0.6,1.253,0.6l0.313,1.946h-7.045L22.373,21.358z
			 M22.216,26.41c0,0.266-0.216,0.481-0.48,0.481h-0.756c-0.266,0-0.48-0.216-0.48-0.481v-0.225c0-0.266,0.215-0.481,0.48-0.481
			h0.756c0.265,0,0.48,0.216,0.48,0.481V26.41z M28.086,25.771c0,0.619-0.5,1.12-1.115,1.12h-2.547c-0.616,0-1.116-0.501-1.116-1.12
			v-0.522c0-0.618,0.5-1.119,1.116-1.119h2.547c0.615,0,1.115,0.501,1.115,1.119V25.771z M30.741,26.41
			c0,0.266-0.214,0.481-0.479,0.481h-0.756c-0.266,0-0.479-0.216-0.479-0.481v-0.225c0-0.266,0.214-0.481,0.479-0.481h0.756
			c0.266,0,0.479,0.216,0.479,0.481V26.41z M31.265,20.842c-0.24,0-0.434,0.196-0.434,0.437v1.29c0,0.24,0.193,0.437,0.434,0.437
			h0.225c0.239,0,0.435-0.196,0.435-0.437v-1.29c0-0.24-0.195-0.437-0.435-0.437H31.265z M19.841,20.842
			c-0.239,0-0.435,0.196-0.435,0.437v1.29c0,0.24,0.195,0.437,0.435,0.437h0.224c0.241,0,0.435-0.196,0.435-0.437v-1.29
			c0-0.24-0.193-0.437-0.435-0.437H19.841z"/>
	</g>
</g>
</svg>
