<?xml version="1.0" encoding="utf-8"?>
<!-- Generator: Adobe Illustrator 16.0.0, SVG Export Plug-In . SVG Version: 6.00 Build 0)  -->
<!DOCTYPE svg PUBLIC "-//W3C//DTD SVG 1.1//EN" "http://www.w3.org/Graphics/SVG/1.1/DTD/svg11.dtd">
<svg version="1.1" id="Layer_1" xmlns="http://www.w3.org/2000/svg" xmlns:xlink="http://www.w3.org/1999/xlink" x="0px" y="0px"
	 width="32px" height="32px" viewBox="0 0 32 32" enable-background="new 0 0 32 32" xml:space="preserve">
<path fill-rule="evenodd" clip-rule="evenodd" fill="#3190CF" d="M9.442,8.445c0,0-1.602-7.666,5.719-8.444
	c0,0,6.927-0.298,5.72,8.444c0,0,1.456-0.264,0,2.223c0,0-0.553,0.738-0.88,0.444c0,0-0.072,3.51-1.76,4.889v0.889h1.319l0.44,0.889
	c0,0,3.36,2.968,6.599,2.667c0,0,4.054,0.327,3.961,6.667l0.439,4.889h-14.08c0,0,4.96-5.683,2.64-13.778
	c0,0,0.249-1.058-0.88-0.889c0,0-1.218,1.307-2.64,1.778v0.444c0,0,1.323,0.83,1.76,2.666c0,0-1.274-1.533-1.76-0.889
	c0,0,1.888,6.8,0.439,10.667h-2.199c0,0-1.021-3.904,0.44-10.667c0,0-0.076-0.715-1.32,0.889c0,0-0.133-1.644,1.76-2.666v-0.444
	c0,0-2.337-0.846-2.64-1.778c0,0-0.674-0.419-0.88,0.889l-0.44,0.445c0,0-0.675,6.506,2.64,13.333H1.083
	c0.121-3.594-0.634-7.283,0.88-9.333c0,0,1.361-2.308,3.52-1.778c0,0,1.71-0.18,2.64-0.889l3.08-2.223
	c-0.267-0.215-0.003-0.924,1.313-0.883C12.522,16.889,12.522,16,12.522,16s-1.785-0.622-2.2-4.444c0,0-0.945,0.646-1.32-1.778
	C8.913,9.208,8.523,8.151,9.442,8.445z"/>
</svg>
