<?xml version="1.0" encoding="utf-8"?>
<!-- Generator: Adobe Illustrator 19.1.0, SVG Export Plug-In . SVG Version: 6.00 Build 0)  -->
<svg version="1.1" id="Layer_1" xmlns="http://www.w3.org/2000/svg" xmlns:xlink="http://www.w3.org/1999/xlink" x="0px" y="0px"
	 width="64px" height="64px" viewBox="0 0 64 64" style="enable-background:new 0 0 64 64;" xml:space="preserve">
<style type="text/css">
	.st0{display:none;}
	.st1{display:inline;}
	.st2{fill:#18165A;}
	.st3{fill-rule:evenodd;clip-rule:evenodd;fill:#18165A;}
</style>
<g id="Shape_35_copy_4">
	<g>
		<path class="st3" d="M23.9,39.6h7.3v-7.3h-7.3V39.6z M12.9,50.6h7.3v-7.3h-7.3V50.6z M23.9,50.6h7.3v-7.3h-7.3V50.6z M42.1,21.4
			h-7.3v7.3h7.3V21.4z M12.9,39.6h7.3v-7.3h-7.3V39.6z M23.9,28.7h7.3v-7.3h-7.3V28.7z M34.8,50.6h7.3v-7.3h-7.3V50.6z M45.8,28.7
			h7.3v-7.3h-7.3V28.7z M59.5,6.8l-10,0V3.1h-8.2v3.7H23V3.1h-8.2v3.7l-10,0c-1,0-1.8,0.8-1.8,1.8v51.1c0,1,0.8,1.8,1.8,1.8h54.7
			c1,0,1.8-0.8,1.8-1.8V8.6C61.3,7.6,60.5,6.8,59.5,6.8z M57.6,57.9H6.5V10.4l8.2,0v3.7H23v-3.7h18.3v3.7h8.2v-3.7l8.2,0V57.9z
			 M33,41.5h11v-11H33V41.5z M45.8,39.6h7.3v-7.3h-7.3V39.6z"/>
	</g>
</g>
</svg>
