<?xml version="1.0" encoding="utf-8"?>
<!-- Generator: Adobe Illustrator 19.1.0, SVG Export Plug-In . SVG Version: 6.00 Build 0)  -->
<svg version="1.1" id="Layer_1" xmlns="http://www.w3.org/2000/svg" xmlns:xlink="http://www.w3.org/1999/xlink" x="0px" y="0px"
	 width="64px" height="64px" viewBox="0 0 64 64" style="enable-background:new 0 0 64 64;" xml:space="preserve">
<style type="text/css">
	.st0{fill:#18165A;}
</style>
<g id="Shape_33_copy_43">
	<g>
		<path class="st0" d="M22.2,32.8c6.3-2.2,15.5-5.3,19.5-6.7H32v-2h16.6l-1.7,0.7l1.8-0.3l-1.5-7.2H29.8l-17.3,7.8v2.9H8.6v2h3.9
			l-1,2.9l-6.4,1.7v1.4C6.7,36.4,14,35.7,22.2,32.8z M32,19.3h13.7v2.9H32V19.3z M26.1,21.3l3.9-2v2.9l-3.9,2V21.3z M26.1,26.1
			l3.9-2v2.9l-3.9,2V26.1z M21.2,24.2l2.9-2v2.9l-2.9,1V24.2z M24.2,27.1V30l-2.9,1l-0.2-2.1L24.2,27.1z M16.4,26.1l2.9-1v2l-2.9,1
			V26.1z M16.4,30l2.9-1v2l-2.9,1V30z M63.2,25.5c-5.7-0.9-13.3-0.9-32.2,6.6C12.2,39.6,0.8,39,0.8,39C2.1,47.7,7,50.5,7,50.5h45.8
			c0-7,5.6-12.8,7.8-15.1C62.8,33.1,63.3,24.9,63.2,25.5z M28.1,14.4h-8.8v5.9l8.8-3.9V14.4z"/>
	</g>
</g>
</svg>
