<?xml version="1.0" encoding="utf-8"?>
<!-- Generator: Adobe Illustrator 16.0.0, SVG Export Plug-In . SVG Version: 6.00 Build 0)  -->
<!DOCTYPE svg PUBLIC "-//W3C//DTD SVG 1.1//EN" "http://www.w3.org/Graphics/SVG/1.1/DTD/svg11.dtd">
<svg version="1.1" id="Layer_1" xmlns="http://www.w3.org/2000/svg" xmlns:xlink="http://www.w3.org/1999/xlink" x="0px" y="0px"
	 width="64px" height="64px" viewBox="0 0 64 64" enable-background="new 0 0 64 64" xml:space="preserve">
<g>
	<g>
		<path fill="none" stroke="#ffffff" stroke-miterlimit="10" d="M61.155,27.419l-6.232-1.04c-0.453-1.852-1.114-3.623-1.974-5.273
			l3.989-4.947c0.849-1.045,0.811-2.549-0.085-3.559l-2.479-2.789c-0.897-1.008-2.388-1.222-3.524-0.504l-5.33,3.351
			c-2.345-1.637-5-2.847-7.864-3.549l-1.043-6.266c-0.218-1.326-1.367-2.3-2.714-2.3h-3.735c-1.345,0-2.497,0.974-2.711,2.3
			l-1.048,6.268c-2.368,0.58-4.589,1.516-6.616,2.749l-5.068-3.617c-1.092-0.781-2.593-0.659-3.547,0.292l-2.639,2.641
			c-0.951,0.954-1.074,2.455-0.29,3.547L11.87,19.8c-1.221,2.011-2.147,4.22-2.728,6.567l-6.301,1.052
			c-1.324,0.218-2.3,1.367-2.3,2.715v3.731c0,1.349,0.976,2.497,2.3,2.716l6.301,1.053c0.477,1.931,1.168,3.776,2.087,5.487
			l-3.972,4.918c-0.845,1.045-0.81,2.55,0.085,3.559l2.477,2.789c0.898,1.01,2.389,1.22,3.526,0.504l5.407-3.396
			c2.288,1.564,4.876,2.715,7.653,3.396l1.048,6.267c0.214,1.326,1.367,2.3,2.711,2.3h3.735c1.347,0,2.496-0.974,2.714-2.3
			l1.045-6.267c2.339-0.573,4.532-1.492,6.539-2.703l5.28,3.771c1.091,0.783,2.592,0.661,3.545-0.294l2.64-2.64
			c0.951-0.951,1.079-2.45,0.29-3.546l-3.759-5.27c1.225-2.017,2.155-4.229,2.731-6.587l6.232-1.041
			c1.328-0.219,2.3-1.367,2.3-2.716v-3.731C63.455,28.786,62.483,27.637,61.155,27.419z"/>
	</g>
</g>
<path fill-rule="evenodd" clip-rule="evenodd" fill="#ffffff" d="M22.451,34.401C22.158,33.487,22,32.512,22,31.5
	c0-1.772,0.485-3.431,1.33-4.851C22.949,26.268,22.801,25.801,22,25c-0.975,1.689-2,4.409-2,6.5c0,1.615,0.333,3.152,0.934,4.547
	C21.514,35.479,21.952,34.97,22.451,34.401z M42.281,35.074C42.746,33.786,43,32.411,43,31c-0.906,0.149-1.313,0.253-2,0.5
	c0,0.71-0.078,1.402-0.227,2.068C41.281,34.368,41.623,34.71,42.281,35.074z M35.301,42.301C34.109,42.752,32.832,43,31.5,43
	c-1.161,0-2.281-0.172-3.337-0.491c0.558-0.673,0.876-0.891,1.684-1.652C30.383,40.951,30.936,41,31.5,41
	c0.816,0,1.608-0.103,2.364-0.296C34.496,41.446,34.742,41.766,35.301,42.301z M32,20c-2.188,0-4.734,0.611-6.475,1.672
	c0.422,0.423,0.537,0.755,1.182,1.624C28.113,22.472,29.751,22,31.5,22C31.687,21.281,31.788,20.875,32,20z"/>
<path fill-rule="evenodd" clip-rule="evenodd" fill="#ffffff" d="M36.295,33.193c0.465-0.465,1.221-0.465,1.686,0l9.916,10.057
	c0.467,0.465,0.467,1.219,0,1.684l-3.039,2.877c-0.467,0.465-1.221,0.465-1.688,0l-9.852-9.93c-0.466-0.466-0.466-1.219,0-1.685
	l0.863-0.987L33,34c-2.938,3.5-10.055,11.791-10.055,11.791l-1.494,1.492c-1.307,1.304-3.425,1.304-4.732,0
	c-1.307-1.305-1.307-3.42,0-4.724l1.494-1.492L29,30l0,0l-8.255-8.488c-0.794,0.386-1.9-0.286-1.9-0.286l-1.449-1.383l2.744-2.739
	l1.449,1.383c0.675,0.673,0.281,1.853,0.281,1.853l8.963,9.01l0.182,0.001c0,0,3.032-3.252,2.987-3.352c-1.075-2.36-2.097-4.035,1-7
	c1.898-1.895,4.754-2.713,7-2l-4,4c-0.414,0.412-0.414,0.588,0,1l1.945,2.148C40.357,24.56,40.586,24.412,41,24l5-4
	c1.086,2.363,0.09,5.913-2,8c-2.371,2.304-4.082,2.295-7,1c-0.141-0.061-3,3-3,3l1.566,1.856L36.295,33.193z M20.592,43.31
	c-0.411-0.41-1.079-0.41-1.49,0c-0.412,0.411-0.412,1.077,0,1.488c0.411,0.411,1.079,0.411,1.49,0
	C21.004,44.387,21.004,43.721,20.592,43.31z M45.623,44.489c0.197,0.197,0.518,0.197,0.715,0s0.197-0.517,0-0.714l-8.828-9.255
	c-0.197-0.197-0.518-0.197-0.715,0s-0.197,0.517,0,0.714L45.623,44.489z M34.961,36.351c-0.197,0.197-0.197,0.518,0,0.715
	l8.828,9.254c0.199,0.197,0.518,0.197,0.717,0c0.197-0.196,0.197-0.517,0-0.714l-8.83-9.255
	C35.479,36.153,35.158,36.153,34.961,36.351z"/>
</svg>
