<?xml version="1.0" encoding="utf-8"?>
<!-- Generator: Adobe Illustrator 16.0.0, SVG Export Plug-In . SVG Version: 6.00 Build 0)  -->
<!DOCTYPE svg PUBLIC "-//W3C//DTD SVG 1.1//EN" "http://www.w3.org/Graphics/SVG/1.1/DTD/svg11.dtd">
<svg version="1.1" id="Layer_1" xmlns="http://www.w3.org/2000/svg" xmlns:xlink="http://www.w3.org/1999/xlink" x="0px" y="0px"
	 width="448.783px" height="100px" viewBox="0 0 448.783 100" enable-background="new 0 0 448.783 100" xml:space="preserve">
<g>
	<g>
		<path fill="#120E5B" d="M312.494,26.969l2.893-15.107l2.924,15.107h5.076l4.456-25.636h-5.01l-2.371,16.111l-2.944-16.111h-4.249
			l-2.944,16.093l-2.356-16.093h-5.043l4.475,25.636H312.494z M344.96,22.673h-9.324v-6.796h7.879v-4.173h-7.879V5.646h9.287V1.333
			h-14.349v25.636h14.386V22.673z M353.15,1.333h-5.057v25.636h5.057V1.333z M366.193,27.321c1.687,0,3.235-0.272,4.653-0.818
			s2.61-1.359,3.588-2.439V13.481h-8.621v3.909h3.544v4.702l-0.445,0.317c-0.62,0.411-1.427,0.616-2.427,0.616
			c-1.559,0-2.681-0.531-3.362-1.593c-0.686-1.062-1.023-2.761-1.023-5.098v-4.648c0.019-2.23,0.343-3.856,0.962-4.877
			c0.62-1.021,1.61-1.532,2.977-1.532c1.123,0,1.949,0.296,2.476,0.889c0.53,0.593,0.863,1.705,1,3.336h4.921
			c-0.217-2.935-1.02-5.088-2.399-6.462c-1.386-1.374-3.433-2.06-6.151-2.06c-2.893,0-5.089,0.955-6.602,2.862
			c-1.508,1.907-2.259,4.627-2.259,8.161v4.613c0.043,3.486,0.864,6.143,2.46,7.968C361.076,26.409,363.316,27.321,366.193,27.321z
			 M383.073,16h7.466v10.969h5.043V1.333h-5.043v10.371h-7.466V1.333h-5.062v25.636h5.062V16z M404.924,1.333h-5.061v25.636h5.061
			V1.333z M426.688,1.333h-5.043v16.833l-7.414-16.833h-5.057v25.636h5.057V10.154l7.399,16.815h5.058V1.333z M439.163,17.39h3.545
			v4.702l-0.45,0.317c-0.62,0.411-1.428,0.616-2.424,0.616c-1.563,0-2.681-0.531-3.365-1.593c-0.682-1.062-1.024-2.761-1.024-5.098
			v-4.648c0.024-2.23,0.348-3.856,0.962-4.877c0.621-1.021,1.616-1.532,2.978-1.532c1.127,0,1.954,0.296,2.479,0.889
			s0.858,1.705,1,3.336h4.921c-0.221-2.935-1.02-5.088-2.404-6.462c-1.381-1.374-3.433-2.06-6.151-2.06
			c-2.888,0-5.089,0.955-6.597,2.862c-1.507,1.907-2.263,4.627-2.263,8.161v4.613c0.047,3.486,0.868,6.143,2.461,7.968
			c1.596,1.826,3.831,2.737,6.709,2.737c1.689,0,3.239-0.272,4.657-0.818c1.413-0.546,2.611-1.359,3.588-2.439V13.481h-8.621V17.39z
			 M321.767,63.03h5.075V37.393h-6.606l-4.715,18.54l-4.731-18.54h-6.607V63.03h5.058v-6.939l-0.466-10.687l5.011,17.626h3.441
			l5.005-17.626l-0.464,10.687V63.03z M339.539,63.383c2.821,0,5.027-0.952,6.615-2.853c1.592-1.904,2.385-4.574,2.385-8.013v-4.385
			c-0.023-3.51-0.835-6.235-2.44-8.178c-1.606-1.943-3.804-2.915-6.593-2.915c-2.831,0-5.047,0.989-6.64,2.967
			c-1.596,1.978-2.395,4.727-2.395,8.249v4.385c0.023,3.394,0.841,6.032,2.446,7.914C334.524,62.438,336.73,63.383,339.539,63.383z
			 M335.533,47.957c0.023-2.219,0.353-3.87,0.996-4.956c0.643-1.086,1.634-1.629,2.977-1.629c1.352,0,2.353,0.563,2.995,1.69
			c0.644,1.127,0.963,2.847,0.963,5.159v4.455c-0.009,2.185-0.338,3.795-0.981,4.832c-0.643,1.04-1.625,1.56-2.943,1.56
			c-1.362,0-2.371-0.531-3.024-1.592c-0.657-1.063-0.981-2.716-0.981-4.958V47.957z M364.643,54.226l-7.413-16.833h-5.062V63.03
			h5.062V46.214l7.396,16.816h5.061V37.393h-5.043V54.226z M373.968,63.03h5.058V37.393h-5.058V63.03z M392.81,63.03V41.706h6.193
			v-4.313h-17.362v4.313h6.094V63.03H392.81z M403.389,40.007c-1.592,1.978-2.39,4.727-2.39,8.249v4.385
			c0.023,3.394,0.836,6.032,2.441,7.914c1.605,1.883,3.817,2.828,6.625,2.828c2.821,0,5.029-0.952,6.615-2.853
			c1.587-1.904,2.386-4.574,2.386-8.013v-4.385c-0.023-3.51-0.841-6.235-2.446-8.178c-1.606-1.943-3.803-2.915-6.588-2.915
			C407.197,37.041,404.986,38.03,403.389,40.007z M406.056,47.957c0.023-2.219,0.356-3.87,1-4.956s1.634-1.629,2.977-1.629
			c1.353,0,2.353,0.563,2.991,1.69c0.644,1.127,0.968,2.847,0.968,5.159v4.455c-0.015,2.185-0.338,3.795-0.982,4.832
			c-0.643,1.04-1.624,1.56-2.943,1.56c-1.366,0-2.376-0.531-3.028-1.592c-0.653-1.063-0.981-2.716-0.981-4.958V47.957z
			 M438.731,45.14c0-2.477-0.69-4.387-2.07-5.73c-1.386-1.344-3.343-2.017-5.879-2.017h-8.066V63.03h5.057v-9.367h2.512l3.766,9.367
			h5.438v-0.247l-4.385-10.495C437.519,50.926,438.731,48.543,438.731,45.14z M432.918,48.318c-0.508,0.687-1.264,1.029-2.272,1.029
			h-2.874v-7.642h2.958c1.962,0,2.944,1.286,2.944,3.856C433.674,46.713,433.42,47.631,432.918,48.318z M311.925,77.344
			c0.939,0,1.662,0.313,2.159,0.941c0.498,0.629,0.747,1.542,0.747,2.739h5.043c0-1.537-0.324-2.911-0.972-4.12
			c-0.648-1.209-1.573-2.146-2.78-2.811c-1.201-0.662-2.573-0.993-4.112-0.993c-2.306,0-4.208,0.653-5.701,1.963
			c-1.497,1.308-2.249,3.043-2.249,5.202c0,1.785,0.554,3.332,1.652,4.64c1.104,1.31,2.907,2.451,5.42,3.426
			c1.38,0.575,2.329,1.129,2.85,1.664c0.521,0.532,0.783,1.323,0.783,2.369c0,1.913-0.883,2.868-2.652,2.868
			c-1.272,0-2.188-0.333-2.751-1.002s-0.845-1.744-0.845-3.224h-5.076c0,1.726,0.375,3.224,1.127,4.491
			c0.75,1.267,1.794,2.241,3.127,2.923c1.328,0.678,2.803,1.021,4.418,1.021c2.386,0,4.273-0.63,5.663-1.886
			c1.385-1.256,2.08-2.998,2.08-5.229c0-2.03-0.555-3.705-1.658-5.02c-1.107-1.313-2.882-2.423-5.324-3.325
			c-1.404-0.61-2.376-1.203-2.925-1.771c-0.554-0.569-0.826-1.206-0.826-1.911c0-0.903,0.244-1.622,0.736-2.157
			C310.352,77.611,311.042,77.344,311.925,77.344z M330.767,84.969l-3.789-11.516h-5.503l6.729,16.34v9.297h5.128v-9.297
			l6.709-16.34h-5.508L330.767,84.969z M349.797,77.344c0.938,0,1.657,0.313,2.155,0.941c0.502,0.629,0.751,1.542,0.751,2.739h5.043
			c0-1.537-0.329-2.911-0.977-4.12c-0.648-1.209-1.573-2.146-2.775-2.811c-1.206-0.662-2.577-0.993-4.113-0.993
			c-2.306,0-4.206,0.653-5.704,1.963c-1.498,1.308-2.244,3.043-2.244,5.202c0,1.785,0.549,3.332,1.652,4.64
			c1.099,1.31,2.906,2.451,5.418,3.426c1.376,0.575,2.324,1.129,2.846,1.664c0.525,0.532,0.784,1.323,0.784,2.369
			c0,1.913-0.883,2.868-2.648,2.868c-1.272,0-2.192-0.333-2.756-1.002c-0.559-0.669-0.841-1.744-0.841-3.224h-5.075
			c0,1.726,0.376,3.224,1.126,4.491c0.752,1.267,1.794,2.241,3.123,2.923c1.329,0.678,2.803,1.021,4.423,1.021
			c2.385,0,4.272-0.63,5.658-1.886c1.39-1.256,2.085-2.998,2.085-5.229c0-2.03-0.555-3.705-1.662-5.02
			c-1.109-1.313-2.883-2.423-5.324-3.325c-1.399-0.61-2.377-1.203-2.926-1.771c-0.55-0.569-0.826-1.206-0.826-1.911
			c0-0.903,0.248-1.622,0.742-2.157C348.225,77.611,348.91,77.344,349.797,77.344z M359.949,77.766h6.089V99.09h5.076V77.766h6.193
			v-4.313h-17.358V77.766z M385.275,87.997h7.879v-4.175h-7.879v-6.057h9.287v-4.313h-14.349V99.09h14.386v-4.297h-9.324V87.997z
			 M408.845,91.992l-4.733-18.539h-6.605V99.09h5.057v-6.938l-0.46-10.688l5.005,17.626h3.441l5.006-17.626l-0.465,10.688v6.938
			h5.075V73.453h-6.606L408.845,91.992z M280.533,100.155h4.808V1.592h-4.808V100.155z M70.015,62.021L59.021,4.022H43.139
			L32.147,61.957L23.338,4.022H4.501l16.716,92.29h19.029l10.802-54.384l10.928,54.384h18.969l16.649-92.29H78.886L70.015,62.021z
			 M143.604,70.768l-17.68-66.746h-24.69v92.29h18.903V71.338L118.4,32.863l18.71,63.449h12.858l18.708-63.449l-1.735,38.475v24.974
			h18.967V4.022h-24.688L143.604,70.768z M223.428,18.03c3.518,0,6.207,1.132,8.071,3.392c1.864,2.261,2.794,5.546,2.794,9.857
			h18.838c0-5.535-1.212-10.48-3.63-14.833c-2.423-4.351-5.883-7.721-10.387-10.11c-4.498-2.387-9.62-3.581-15.362-3.581
			c-8.616,0-15.72,2.355-21.314,7.067c-5.595,4.713-8.391,10.956-8.391,18.73c0,6.424,2.059,11.992,6.172,16.703
			c4.115,4.713,10.865,8.821,20.254,12.329c5.144,2.07,8.688,4.068,10.642,5.99c1.948,1.923,2.925,4.764,2.925,8.524
			c0,6.888-3.3,10.333-9.902,10.333c-4.756,0-8.188-1.205-10.287-3.613c-2.099-2.409-3.15-6.276-3.15-11.601h-18.964
			c0,6.212,1.401,11.601,4.208,16.164c2.806,4.563,6.699,8.071,11.67,10.521c4.972,2.451,10.479,3.677,16.522,3.677
			c8.917,0,15.964-2.261,21.152-6.782c5.184-4.521,7.78-10.797,7.78-18.826c0-7.31-2.07-13.332-6.208-18.064
			c-4.136-4.732-10.766-8.725-19.896-11.98c-5.23-2.197-8.872-4.32-10.931-6.371c-2.057-2.05-3.087-4.342-3.087-6.878
			c0-3.253,0.922-5.84,2.766-7.765C217.557,18.993,220.127,18.03,223.428,18.03z"/>
	</g>
</g>
</svg>
